<svg xmlns="http://www.w3.org/2000/svg" class="svg-logo" width="2400" height="2400" viewBox="0 0 630 430" style="height: auto;"><rect width="630" height="630" y="-100" rx="0" ry="0" fill="transparent" fill-opacity="0"></rect><g data-element="wrapper" transform="translate(-31.483131408694504 -89.79003295898713) scale(1.1000000000000099)"><g data-element="container" transform="translate(240.17276104033593 138.17288378072715) scale(0.24942369852980523)"><g ><path id="fill_x5F_1_143_" d="M486.64,258.265c-22.864,102.222-93.159,186.548-186.594,228.643
	C206.565,444.86,136.224,360.533,113.36,258.265c20.334-21.162,32.801-49.915,32.801-81.612c0-26.775-8.925-51.525-24.014-71.307
	l66.384-58.242c31.421,22.45,69.881,35.7,111.469,35.7c41.634,0,80.094-13.249,111.515-35.746l26.406,23.187l39.932,35.055
	c-15.089,19.828-24.014,44.532-24.014,71.353C453.839,208.35,466.306,237.102,486.64,258.265z" fill="transparent" fill-opacity="0"></path>
<path id="frame_x5F_1_143_" d="M560.76,336.56c-5.694,3.787-11.61,8.324-16.178,13.724c-1.915,2.196-3.652,4.541-5.277,6.965
	l5.989-16.462c2.42-7.416,4.466-14.951,6.22-22.554c4.313,1.502,8.924,2.094,13.697,1.411c5.269-0.791,11.226-3.038,16.079-7.353
	c9.907-8.529,17.698-23.07,18.711-38.827c-10.114-2.406-21.007,1.411-30.085,10.316c-4.547,4.465-9.061,9.689-12.241,15.453
	c-1.491,2.624-2.745,5.37-3.905,8.174c2.388-12.755,3.846-25.676,4.34-38.634c8.938,1.275,18.405-1.678,26.314-10.639
	c3.857-4.743,6.789-10.678,8.761-17.278c1.824-6.588,2.264-13.821,1.942-21.085c-9.607-0.518-19.049,4.743-26.137,14.417
	c-3.419,4.841-6.309,10.34-8.385,16.161c-0.988,2.77-1.649,5.618-2.304,8.509c0.003-12.192-0.825-24.375-2.551-36.432
	c8.505-0.248,16.63-4.487,22.221-13.98c3.062-5.006,4.651-10.853,5.275-17.149c0.298-3.143,0.44-6.418,0.18-9.688
	c-0.341-3.248-0.921-6.535-1.727-9.787c-8.927,1.051-16.67,7.287-21.488,17.21c-2.637,5.033-4.337,10.513-5.135,16.138
	c-0.395,2.607-0.69,5.27-0.846,7.948c-1.893-10.416-4.426-20.717-7.662-30.815c-0.191-0.633-0.422-1.25-0.618-1.88
	c7.702-1.49,14.964-6.795,18.408-16.269c1.81-4.951,2.678-10.635,2.35-16.472c-0.491-5.764-1.899-11.798-4.224-17.518
	c-8.03,2.274-14.237,9.084-17.433,18.997c-1.577,4.955-2.095,10.138-2.248,15.525c-0.059,2.661,0.18,5.295,0.567,7.925
	c-3.373-9.411-7.41-18.581-11.704-27.601c-0.293-0.563-0.602-1.119-0.897-1.682c6.98-2.518,12.553-8.268,14.615-17.579
	c1.16-4.895,0.994-10.102-0.175-15.343c-1.12-5.266-3.099-10.65-6.207-15.407c-7.155,3.236-11.769,10.182-13.366,19.716
	c-0.835,4.801-0.763,9.736,0.097,14.561c0.414,2.697,1.039,5.39,1.826,8.044c-4.858-8.932-10.058-17.675-16.033-25.9
	c6.129-3.232,10.563-9.322,11.35-18.242c0.475-8.952-2.978-19.294-9.779-27.294c-6.123,3.829-9.717,10.946-9.821,19.773
	c-0.341,7.352,1.751,14.535,5.025,21.304c-5.715-7.866-11.997-15.293-18.555-22.464c5.269-3.706,8.742-9.997,8.299-18.24
	c-0.604-8.321-4.99-17.362-12.128-23.919c-5.202,4.246-7.713,11.216-6.795,19.375c0.462,4.088,1.504,8.323,3.298,12.175
	c1.171,2.505,2.645,4.895,4.225,7.236c-0.424-0.455-0.838-0.922-1.265-1.376c-4.109-4.048-8.291-8.03-12.566-11.908
	c-1.456-7.081-5.747-14.873-13.205-20.273c-7.383-5.945-16.46-7.854-23.725-7.263c2.339,7.377,7.611,13.802,14.532,19.394
	c6.918,4.996,14.288,8.091,21.638,8.647c4.281,3.952,8.462,8.013,12.569,12.134c0.467,0.507,0.921,1.028,1.386,1.537
	c-2.283-1.754-4.705-3.299-7.302-4.369c-3.897-1.611-7.826-2.607-11.873-2.437c-4.912,0.207-9.048,1.746-12.354,4.167l-42.702-37.49
	l-2.618,1.872c-31.97,22.89-69.714,34.989-109.156,34.989c-39.385,0-77.116-12.083-109.11-34.943l-2.616-1.869l-42.707,37.47
	c-3.314-2.438-7.461-3.987-12.394-4.195c-4.047-0.17-7.976,0.826-11.873,2.437c-2.6,1.071-5.02,2.616-7.302,4.37
	c0.465-0.509,0.919-1.03,1.386-1.537c4.106-4.122,8.288-8.182,12.569-12.134c7.351-0.556,14.72-3.651,21.638-8.647
	c6.918-5.593,12.19-12.017,14.532-19.394c-7.265-0.591-16.345,1.318-23.725,7.263c-7.458,5.4-11.75,13.192-13.205,20.273
	c-4.276,3.877-8.457,7.86-12.566,11.907c-0.427,0.456-0.843,0.924-1.27,1.381c1.579-2.343,3.056-4.734,4.23-7.241
	c1.794-3.852,2.836-8.088,3.298-12.175c0.918-8.159-1.595-15.129-6.795-19.375c-7.139,6.556-11.524,15.598-12.128,23.919
	c-0.443,8.243,3.027,14.535,8.299,18.241c-6.558,7.17-12.843,14.598-18.555,22.465c3.274-6.769,5.366-13.953,5.022-21.305
	c-0.102-8.826-3.695-15.944-9.819-19.773c-6.8,8-10.254,18.341-9.778,27.294c0.787,8.92,5.221,15.01,11.352,18.242
	c-5.978,8.226-11.178,16.971-16.036,25.903c0.787-2.655,1.413-5.349,1.826-8.047c0.859-4.825,0.932-9.76,0.094-14.561
	c-1.595-9.534-6.212-16.48-13.364-19.716c-3.107,4.757-5.087,10.14-6.206,15.407c-1.168,5.241-1.335,10.448-0.177,15.343
	c2.065,9.311,7.635,15.061,14.618,17.579c-0.295,0.562-0.602,1.119-0.897,1.682c-4.294,9.02-8.331,18.19-11.704,27.602
	c0.387-2.631,0.626-5.265,0.567-7.927c-0.156-5.387-0.671-10.57-2.248-15.525c-3.196-9.912-9.403-16.722-17.433-18.997
	c-2.326,5.72-3.733,11.754-4.227,17.518c-0.325,5.837,0.54,11.521,2.353,16.472c3.443,9.476,10.708,14.781,18.41,16.27
	c-0.199,0.63-0.43,1.247-0.62,1.88c-3.236,10.098-5.769,20.399-7.662,30.815c-0.156-2.678-0.451-5.341-0.846-7.948
	c-0.798-5.625-2.498-11.105-5.135-16.138c-4.818-9.923-12.561-16.159-21.488-17.21c-0.806,3.252-1.386,6.539-1.727,9.787
	c-0.26,3.27-0.118,6.545,0.18,9.687c0.623,6.297,2.213,12.143,5.272,17.15c5.594,9.493,13.718,13.732,22.224,13.98
	c-1.724,12.058-2.554,24.241-2.551,36.432c-0.655-2.891-1.316-5.739-2.307-8.509c-2.073-5.821-4.963-11.319-8.382-16.161
	c-7.087-9.675-16.53-14.936-26.137-14.417c-0.322,7.263,0.118,14.496,1.942,21.085c1.971,6.599,4.904,12.535,8.761,17.278
	c7.909,8.961,17.376,11.913,26.314,10.639c0.494,12.958,1.952,25.88,4.34,38.634c-1.163-2.804-2.414-5.55-3.905-8.174
	c-3.18-5.764-7.694-10.987-12.244-15.453C21.007,274.876,10.114,271.059,0,273.465c1.013,15.756,8.804,30.297,18.708,38.827
	c4.853,4.315,10.812,6.563,16.082,7.354c4.772,0.683,9.381,0.091,13.697-1.411c1.754,7.603,3.8,15.138,6.22,22.554l5.992,16.468
	c-1.625-2.426-3.362-4.773-5.283-6.971c-4.566-5.401-10.482-9.938-16.178-13.724c-11.497-7.508-23.827-9.346-33.979-4.688
	c4.512,16.631,15.816,30.487,28.124,37.382c12.26,6.25,23.733,5.084,32.625-0.251l4.267,8.967c1.34,3.096,3.043,5.996,4.823,8.854
	l5.2,8.653c1.764,2.864,3.4,5.816,5.275,8.608l1.877,2.538c-2.294-1.871-4.625-3.683-6.827-5.503
	c-6.032-4.634-12.813-8.331-20.105-10.792c-13.947-5.227-27.098-4.595-36.807,2.65c2.248,4.093,4.703,8.032,7.442,11.65
	c3.008,3.468,6.209,6.666,9.539,9.509c6.733,5.642,13.605,10.095,21.491,11.922c14.366,3.725,25.841-0.019,33.941-7.723
	c6.655,8.655,14.145,16.637,21.571,24.64l10.02,9.193c-10.136-5.221-20.956-8.904-31.876-10.415
	c-16.353-1.761-29.886,1.89-38.311,11.819c6.674,7.63,15.021,13.614,23.14,18.279c3.999,2.405,8.575,3.866,12.891,5.076
	c4.359,1.169,8.672,1.874,12.867,2.064c4.192,0.191,8.057-0.141,11.589-0.926c3.572-0.837,6.921-2.257,9.84-3.936
	c5.076-2.94,9.024-6.961,12.029-11.605c2.89,2.174,5.817,4.304,8.659,6.538c10.471,7.492,21.453,14.317,32.867,20.335
	c-3.113-0.647-6.236-1.225-9.335-1.716c-8.664-1.55-17.642-1.739-26.505-0.458c-17.049,1.651-30.657,9.291-36.82,21.749
	c4.579,3.104,9.33,5.885,14.137,8.268c4.856,2.313,10.09,3.764,15.077,5.03c5.03,1.204,9.993,1.963,14.782,2.228
	c4.754,0.332,9.679-0.454,14.129-1.384c16.815-3.784,26.354-13.807,30.359-26.071c7.52,3.328,15.185,6.331,23.027,8.867
	c9.11,2.882,18.365,5.249,27.713,7.164c-3.4,0.218-6.784,0.474-10.106,0.715c-9.472,1.032-19.009,3.897-27.649,6.97
	c-17.435,6.814-29.639,18.614-32.537,33.211c5.758,1.854,11.61,3.322,17.4,4.357c5.796,1.014,11.47,1.792,17.188,1.332
	c11.347-0.665,21.746-2.62,30.525-7.357c16.42-9.047,23.325-22.276,23.859-36.064c11.043,1.501,22.178,2.396,33.345,2.628
	c11.167-0.231,22.299-1.126,33.342-2.627c0.534,13.788,7.442,27.017,23.859,36.064c8.779,4.737,19.178,6.692,30.525,7.357
	c5.718,0.46,11.393-0.318,17.188-1.332c5.79-1.035,11.642-2.503,17.4-4.357c-2.898-14.597-15.101-26.398-32.537-33.211
	c-8.64-3.073-18.177-5.938-27.649-6.97c-3.322-0.241-6.706-0.497-10.103-0.715c9.346-1.915,18.604-4.282,27.713-7.164
	c7.839-2.536,15.507-5.539,23.024-8.867c4.002,12.264,13.544,22.287,30.359,26.07c4.45,0.93,9.376,1.716,14.129,1.384
	c4.789-0.266,9.752-1.024,14.782-2.228c4.987-1.265,10.222-2.716,15.077-5.03c4.807-2.383,9.558-5.164,14.137-8.268
	c-6.164-12.458-19.772-20.098-36.82-21.749c-8.863-1.28-17.841-1.091-26.505,0.458c-3.099,0.491-6.22,1.07-9.335,1.716
	c11.414-6.019,22.398-12.844,32.867-20.335c2.841-2.234,5.769-4.364,8.659-6.538c3.008,4.644,6.953,8.665,12.029,11.605
	c2.919,1.679,6.268,3.1,9.84,3.936c3.532,0.784,7.396,1.116,11.589,0.926c4.195-0.19,8.508-0.895,12.867-2.064
	c4.316-1.211,8.892-2.671,12.891-5.076c8.119-4.665,16.466-10.649,23.14-18.279c-8.425-9.929-21.958-13.581-38.311-11.82
	c-10.92,1.511-21.74,5.195-31.873,10.416l10.018-9.193c7.426-8.003,14.916-15.985,21.571-24.64
	c8.1,7.704,19.576,11.448,33.941,7.723c7.885-1.827,14.758-6.28,21.491-11.922c3.33-2.843,6.531-6.042,9.539-9.509
	c2.739-3.617,5.194-7.557,7.439-11.65c-9.706-7.245-22.858-7.877-36.804-2.65c-7.292,2.462-14.073,6.159-20.105,10.793
	c-2.202,1.819-4.533,3.631-6.827,5.502l1.877-2.537c1.875-2.792,3.51-5.744,5.275-8.608l5.2-8.653
	c1.781-2.858,3.483-5.758,4.823-8.854l4.267-8.967c8.892,5.335,20.365,6.501,32.625,0.251c12.308-6.895,23.612-20.751,28.124-37.382
	C584.59,327.214,572.26,329.053,560.76,336.56z M470.731,92.779c7.576,0.101,13.957-2.588,18.166-7.557
	c6.271,6.99,12.279,14.215,17.758,21.835c-5.28-4.828-11.889-7.916-18.338-8.665c-3.916-0.321-7.45,0.229-10.598,1.393l-8.097-7.11
	C469.998,92.688,470.353,92.781,470.731,92.779z M299.999,86.859c40.065,0,78.456-11.97,111.24-34.648l61.142,53.678
	c-14.795,20.717-22.597,45.1-22.597,70.764c0,30.931,11.5,60.255,32.424,82.823c-22.597,97.935-90.499,181.054-182.163,222.977
	c-91.718-41.883-159.654-125.004-182.251-222.977c20.924-22.57,32.424-51.895,32.424-82.823c0-25.675-7.799-50.045-22.595-70.719
	l61.187-53.681C221.615,74.905,259.988,86.859,299.999,86.859z M129.269,92.779c0.403,0.002,0.782-0.096,1.182-0.11l-8.129,7.131
	c-3.156-1.175-6.706-1.73-10.638-1.408c-6.448,0.749-13.055,3.835-18.335,8.661c5.479-7.619,11.487-14.842,17.755-21.831
	C115.311,90.191,121.692,92.879,129.269,92.779z M199.542,491.733c5.984-11.227,6.722-25.383,2.828-39.07
	c-1.015-3.776-2.519-6.971-3.934-10.564c-1.453-3.526-3.156-6.817-5.092-9.845c-1.896-3.091-4.203-5.656-6.427-8.424
	c-2.175-2.839-4.576-5.407-7.208-7.696c-9.674,9.836-15.598,23.222-12.878,39.655c1.66,7.726,5.422,15.239,10.686,22.163
	c1.786,2.259,3.865,4.286,6.045,6.222c-11.068-5.729-21.743-12.229-31.946-19.378c-2.804-2.164-5.694-4.225-8.549-6.328
	c3.806-4.047,6.72-8.842,8.618-14.158c1.115-3.096,1.834-6.259,2.361-9.682c0.569-3.475,0.838-7.077,0.784-10.746
	c-0.054-3.67-0.427-7.223-1.093-10.622c-0.626-3.44-1.759-6.513-2.637-9.944c-1.877-6.722-5.267-12.397-8.957-17.905
	c-10.85,6.657-19.493,17.826-20.062,32.768c-0.73,10.351,2.67,20.882,8.801,30.109l-9.757-8.781
	c-7.356-7.787-14.795-15.554-21.415-23.995c9.341-6.042,15.784-16.518,18.19-28.783c1.045-6.418,1.829-13.375,1.098-19.689
	c-0.33-3.183-0.948-6.272-1.856-9.25c-0.634-3.124-1.461-6.183-2.616-9.095c-11.223,3.763-21.19,12.096-25.296,25.791
	c-1.748,6.661-1.845,13.969-0.553,21.387c0.403,2.893,1.346,5.604,2.449,8.274l-1.917-2.536c-1.867-2.727-3.499-5.614-5.261-8.414
	l-5.197-8.461c-1.781-2.795-3.486-5.632-4.829-8.666l-4.286-8.789c9.824-3.555,17.604-11.627,22.294-22.382
	c5.699-11.817,6.059-23.894,4.504-35.678c-11.03,1.247-21.437,6.883-27.993,18.604c-3.333,5.862-4.375,12.334-4.668,19.322
	c-0.07,2.726,0.105,5.51,0.406,8.304l-5.935-15.849c-2.452-7.282-4.541-14.689-6.344-22.17c4.515-0.614,8.841-2.184,12.773-4.656
	c4.574-2.831,8.159-6.632,11.954-11.512c7.388-9.752,9.824-20.851,10.622-32.121c-10.278-0.865-20.808,2.485-28.954,12.021
	c-4.061,4.753-6.242,10.471-7.783,16.785c-0.575,2.486-0.943,5.072-1.16,7.682c-2.347-12.202-3.838-24.573-4.429-36.996
	c9.099,0.601,18.241-3.185,25.471-10.438c4.139-3.839,7.41-8.255,9.754-12.992c2.492-4.73,4.466-9.745,5.275-14.956
	c-9.306-2.513-19.404-1.132-28.181,6.283c-4.509,3.687-7.823,8.533-10.16,14.056c-0.972,2.299-1.815,4.73-2.444,7.218
	c-0.067-11.704,0.634-23.412,2.181-35.017c8.194,2.047,17.323,0.112,25.377-5.363c4.122-2.92,7.982-6.437,11.03-10.408
	c1.536-1.983,2.788-4.105,4.002-6.278c1.292-2.152,2.385-4.397,3.266-6.722c-8.092-3.759-17.68-4.067-27.053,1.316
	c-4.448,2.744-8.334,6.644-11.527,11.292c-1.493,2.22-2.699,4.641-3.714,7.174c1.778-10.415,4.2-20.727,7.337-30.846
	c0.183-0.628,0.408-1.242,0.596-1.867c7.313,3.232,15.593,2.751,24.133-1.002c4.474-1.98,8.277-4.768,11.661-8.008
	c3.553-3.173,6.405-6.919,8.653-11.018c-6.889-4.647-15.684-6.301-24.864-2.615c-4.6,1.826-8.978,4.737-12.341,8.631
	c-1.689,1.923-3.33,4.011-4.767,6.255c3.258-9.373,7.179-18.514,11.36-27.518c0.287-0.562,0.588-1.118,0.876-1.679
	c6.18,4.046,14.261,5.019,22.495,2.613c4.214-1.309,8.301-3.262,11.965-5.764c3.62-2.53,6.668-5.701,9.547-9.066
	c-5.626-5.164-13.716-7.969-22.672-5.821c-4.429,1.096-8.694,3.274-12.582,6.239c-1.998,1.602-3.808,3.475-5.471,5.513
	c4.695-8.815,9.735-17.454,15.537-25.599c5.159,4.61,12.461,6.585,20.333,5.356c4.635-0.557,8.876-2.118,12.778-4.303
	c12.623,18.717,19.331,40.459,19.331,63.353c0,29.558-11.248,57.546-31.672,78.803l-1.507,1.568l0.475,2.124
	c16.264,72.744,56.976,137.531,113.617,184.35c-5.041,11.696-6.024,24.944,0.414,38.639c3.623,8.274,9.792,14.478,17.263,19.986
	c2.229,1.763,4.657,3.201,7.168,4.5c-8.677-1.736-17.277-3.857-25.758-6.448C214.431,497.775,206.917,494.915,199.542,491.733z
	 M267.486,509.821c2.777-13.165-0.551-27.627-8.207-40.195c12.51,7.788,25.525,14.869,39.106,20.978l1.662,0.749l1.665-0.752
	c13.538-6.098,26.51-13.162,38.982-20.93c-7.638,12.557-10.955,27-8.181,40.15c-10.78,1.361-21.636,2.131-32.513,2.257
	C289.122,511.952,278.266,511.182,267.486,509.821z M526.077,376.07c-1.343,3.034-3.048,5.871-4.829,8.666l-5.197,8.461
	c-1.762,2.799-3.395,5.687-5.261,8.414l-1.918,2.536c1.104-2.67,2.046-5.381,2.449-8.274c1.292-7.418,1.195-14.725-0.553-21.386
	c-4.106-13.694-14.073-22.028-25.296-25.791c-1.155,2.912-1.982,5.971-2.616,9.095c-0.908,2.978-1.525,6.067-1.858,9.25
	c-0.73,6.313,0.056,13.27,1.101,19.689c2.406,12.265,8.847,22.741,18.187,28.783c-6.617,8.441-14.057,16.208-21.413,23.995
	l-9.757,8.781c6.131-9.227,9.531-19.758,8.798-30.11c-0.567-14.942-9.209-26.111-20.062-32.768
	c-3.687,5.508-7.077,11.183-8.954,17.905c-0.878,3.431-2.012,6.504-2.637,9.944c-0.666,3.398-1.039,6.952-1.093,10.621
	s0.215,7.271,0.784,10.746c0.526,3.423,1.246,6.586,2.361,9.682c1.899,5.316,4.813,10.111,8.618,14.158
	c-2.855,2.104-5.745,4.164-8.548,6.328c-10.203,7.15-20.878,13.649-31.949,19.379c2.184-1.937,4.259-3.964,6.048-6.223
	c5.264-6.924,9.026-14.437,10.686-22.163c2.72-16.433-3.204-29.819-12.878-39.655c-2.632,2.289-5.033,4.858-7.208,7.696
	c-2.224,2.768-4.531,5.333-6.427,8.424c-1.936,3.028-3.639,6.319-5.092,9.845c-1.415,3.593-2.919,6.787-3.934,10.564
	c-3.894,13.686-3.156,27.843,2.828,39.07c-7.375,3.181-14.887,6.042-22.565,8.444c-8.479,2.591-17.083,4.712-25.758,6.448
	c2.511-1.299,4.939-2.737,7.168-4.5c7.471-5.508,13.64-11.712,17.263-19.986c6.435-13.691,5.455-26.935,0.419-38.628
	c56.633-46.833,97.342-111.626,113.611-184.358l0.475-2.127l-1.507-1.568c-20.424-21.254-31.672-49.242-31.672-78.803
	c0-22.869,6.701-44.612,19.313-63.363c3.905,2.191,8.154,3.757,12.797,4.314c7.872,1.23,15.174-0.747,20.333-5.358
	c5.801,8.145,10.842,16.786,15.539,25.602c-1.665-2.038-3.475-3.913-5.473-5.515c-3.889-2.965-8.154-5.143-12.582-6.239
	c-8.957-2.148-17.046,0.657-22.672,5.821c2.876,3.365,5.927,6.536,9.548,9.066c3.663,2.502,7.751,4.455,11.965,5.764
	c8.231,2.406,16.318,1.433,22.495-2.614c0.287,0.562,0.588,1.118,0.876,1.68c4.182,9.004,8.103,18.147,11.36,27.521
	c-1.437-2.245-3.078-4.335-4.767-6.259c-3.362-3.894-7.74-6.805-12.343-8.631c-9.177-3.686-17.972-2.033-24.861,2.615
	c2.248,4.1,5.1,7.846,8.653,11.018c3.384,3.24,7.187,6.028,11.661,8.008c8.54,3.754,16.82,4.234,24.136,1.002
	c0.188,0.626,0.411,1.239,0.594,1.867c3.137,10.118,5.557,20.428,7.337,30.843c-1.015-2.532-2.221-4.952-3.714-7.171
	c-3.193-4.648-7.079-8.549-11.527-11.292c-9.373-5.383-18.961-5.075-27.053-1.316c0.881,2.324,1.974,4.57,3.266,6.722
	c1.214,2.173,2.463,4.296,4.002,6.278c3.048,3.971,6.908,7.488,11.03,10.408c8.052,5.474,17.183,7.409,25.377,5.363
	c1.547,11.607,2.248,23.315,2.181,35.021c-0.628-2.489-1.472-4.922-2.444-7.221c-2.337-5.523-5.651-10.37-10.16-14.056
	c-8.777-7.415-18.875-8.796-28.181-6.283c0.806,5.211,2.782,10.227,5.275,14.956c2.345,4.738,5.616,9.154,9.754,12.992
	c7.23,7.253,16.372,11.039,25.471,10.438c-0.591,12.424-2.081,24.795-4.431,36.998c-0.215-2.611-0.583-5.197-1.157-7.684
	c-1.542-6.314-3.722-12.032-7.783-16.785c-8.146-9.536-18.676-12.886-28.954-12.021c0.795,11.27,3.231,22.369,10.622,32.121
	c3.795,4.88,7.38,8.681,11.954,11.512c3.932,2.472,8.258,4.042,12.77,4.656c-1.799,7.481-3.889,14.888-6.341,22.17l-5.935,15.849
	c0.301-2.794,0.475-5.579,0.406-8.304c-0.293-6.988-1.335-13.46-4.668-19.322c-6.556-11.721-16.963-17.356-27.993-18.604
	c-1.555,11.785-1.195,23.862,4.504,35.679c4.689,10.755,12.467,18.827,22.294,22.382L526.077,376.07z" fill="#011ffd" fill-opacity="1"></path></g></g><g ><g data-element="icon" transform="scale(0.15173269489014862) translate(1776.0193220162096 1103.7843601813508)"><path id="color_x5F_2_1_" d="M269.068,531.362c-18.221-26.251-44.335-42.846-65.397-53.995    c-31.303-16.572-127.509-51.348-143.624-79.175C44.394,371.157,0,289.432,0,289.432c33.144-7.363,61.363,39.593,89.796,80.211    c21.188,30.269,93.656,53.589,103.669,35.566c11.351-20.431-7.82-34.052-31.222-46.609c-35.938-19.28-24.859-82.861-2.762-46.954    c18.287,29.716,83.868,40.515,121.592,79.367C268.143,412.192,243.032,465.783,269.068,531.362z M396.329,477.366    c31.303-16.572,127.511-51.348,143.624-79.175C555.606,371.157,600,289.432,600,289.432c-33.144-7.363-61.363,39.593-89.796,80.211    c-21.187,30.269-93.655,53.589-103.669,35.566c-11.351-20.431,7.819-34.052,31.223-46.609c35.936-19.28,24.858-82.861,2.761-46.954    c-22.095,35.905-113.241,44.191-140.861,107.719c-27.619,63.526,11.783,157.617,11.783,157.617    C322.539,522.499,365.027,493.937,396.329,477.366z" fill="#606161" fill-opacity="1"></path> <path id="color_x5F_1_1_" d="M139.988,285.397c13.983-4.321,32.081,9.149,51.454,22.198    c12.689,8.546,108.558,59.64,108.558,59.64s95.869-51.095,108.557-59.64c19.374-13.049,35.991-26.442,51.455-22.198    c21.871,6.003,24.122,25.784,22.358,40.143c48.18-48.126,87.017-101.709,87.017-149.402c0-74.39-54.39-137.041-127.536-150.587    c-81.725-15.134-134.695,40.862-141.853,80.211c-7.159-39.349-60.129-95.345-141.854-80.211    C85.001,39.096,30.611,101.748,30.611,176.138c0,47.743,38.919,101.388,87.169,149.553    C116.293,311.794,120.882,291.301,139.988,285.397z M210.371,205.281c0-3.217,2.632-5.85,5.85-5.85h58.935v-58.937    c0-3.217,2.632-5.85,5.85-5.85h37.986c3.217,0,5.85,2.632,5.85,5.85v58.937h58.937c3.217,0,5.85,2.632,5.85,5.85v37.986    c0,3.217-2.632,5.85-5.85,5.85h-58.937v58.936c0,3.217-2.632,5.85-5.85,5.85h-37.986c-3.217,0-5.85-2.632-5.85-5.85v-58.936h-58.935    c-3.217,0-5.85-2.632-5.85-5.85V205.281z" fill="#00aed3" fill-opacity="1"></path></g><path d="M135.77 342.24L155.10 342.24Q156.03 342.24 156.69 342.80Q157.35 343.36 157.35 344.22L157.35 344.22Q157.35 345.08 156.69 345.64Q156.03 346.20 155.10 346.20L155.10 346.20L129.56 346.20Q128.64 346.20 127.98 345.54Q127.32 344.88 127.32 343.96L127.32 343.96L127.32 298.28Q127.32 297.36 127.98 296.70Q128.64 296.04 129.56 296.04L129.56 296.04L133.52 296.04Q134.45 296.04 135.11 296.70Q135.77 297.36 135.77 298.28L135.77 298.28L135.77 342.24ZM171.21 346.86L171.21 346.86Q166.98 346.86 164.05 344.65Q161.11 342.44 159.56 338.54Q158.01 334.65 158.01 329.63L158.01 329.63Q158.01 324.68 159.82 320.66Q161.64 316.63 164.87 314.26Q168.11 311.88 172.46 311.88L172.46 311.88Q178.14 311.88 181.90 314.29Q185.66 316.70 187.51 320.53Q189.36 324.35 189.36 328.64L189.36 328.64Q189.36 328.91 189.36 329.17L189.36 329.17Q189.82 333.59 190.41 337.19Q191.01 340.79 191.60 343.16L191.60 343.16Q191.67 343.36 191.67 343.69L191.67 343.69Q191.67 345.67 189.62 346.00L189.62 346.00L185.86 346.46Q184.01 346.66 183.55 344.95L183.55 344.95Q183.29 343.89 183.09 342.77L183.09 342.77Q180.84 344.68 177.87 345.77Q174.90 346.86 171.21 346.86ZM171.21 342.90L171.21 342.90Q174.44 342.90 176.55 340.75Q178.67 338.61 179.76 335.31Q180.84 332.01 180.84 328.51L180.84 328.51Q180.84 328.51 180.84 328.48Q180.84 328.45 180.84 328.25L180.84 328.25Q180.78 327.92 180.78 327.52L180.78 327.52Q180.78 327.19 180.78 326.93L180.78 326.93Q180.58 324.02 179.59 321.48Q178.60 318.94 176.82 317.39Q175.04 315.84 172.46 315.84L172.46 315.84Q171.08 315.84 169.69 317.85Q168.30 319.87 167.38 323.03Q166.46 326.20 166.46 329.63L166.46 329.63Q166.46 333.07 167.18 336.10Q167.91 339.14 169.03 341.02Q170.15 342.90 171.21 342.90ZM222.29 344.15L222.29 298.15Q222.29 296.04 224.47 295.84L224.47 295.84Q227.18 295.58 229.59 295.48Q231.99 295.38 234.11 295.38L234.11 295.38Q241.23 295.38 245.52 297.06Q249.81 298.75 251.76 301.75Q253.71 304.75 253.71 308.78L253.71 308.78Q253.71 312.74 251.63 315.67Q249.55 318.61 244.07 320.20L244.07 320.20Q254.63 323.83 254.63 332.27L254.63 332.27Q254.63 336.83 252.62 340.09Q250.61 343.36 246.05 345.11Q241.50 346.86 233.91 346.86L233.91 346.86Q231.86 346.86 229.52 346.76Q227.18 346.66 224.54 346.40L224.54 346.40Q222.29 346.20 222.29 344.15L222.29 344.15ZM229.95 299.41L229.95 299.41L229.95 317.89Q236.22 317.75 239.91 316.66Q243.61 315.58 245.23 313.56Q246.84 311.55 246.84 308.78L246.84 308.78Q246.84 306.07 245.82 303.93Q244.80 301.78 242.22 300.53Q239.65 299.27 235.10 299.27L235.10 299.27Q234.11 299.27 232.62 299.31Q231.14 299.34 229.95 299.41ZM229.95 321.85L229.95 342.90Q230.87 342.97 232.06 342.97Q233.25 342.97 233.97 342.97L233.97 342.97Q240.38 342.97 243.74 340.36Q247.11 337.75 247.11 332.27L247.11 332.27Q247.11 327.19 243.21 324.68Q239.32 322.18 229.95 321.85L229.95 321.85ZM287.17 341.78L287.17 341.78Q285.12 343.82 281.99 345.34Q278.85 346.86 275.16 346.86L275.16 346.86Q266.97 346.86 262.45 342.14Q257.93 337.42 257.93 329.44L257.93 329.44Q257.93 324.42 260.01 320.46Q262.09 316.50 265.75 314.19Q269.42 311.88 274.23 311.88L274.23 311.88Q279.18 311.88 282.91 313.99Q286.64 316.10 288.75 319.80Q290.87 323.50 290.87 328.31L290.87 328.31Q290.87 329.24 290.24 329.83Q289.61 330.43 288.69 330.43L288.69 330.43L265.06 330.43Q265.32 336.30 268.16 339.60Q271.00 342.90 275.16 342.90L275.16 342.90Q277.27 342.90 278.52 341.78Q279.78 340.66 281.03 338.61L281.03 338.61Q281.76 337.16 283.28 337.49L283.28 337.49L285.72 338.08Q287.76 338.61 287.76 340.39L287.76 340.39Q287.76 341.18 287.17 341.78ZM274.23 315.84L274.23 315.84Q272.32 315.84 270.47 317.26Q268.62 318.68 267.24 321.05Q265.85 323.43 265.32 326.47L265.32 326.47L282.35 326.47Q281.96 321.78 279.78 318.81Q277.60 315.84 274.23 315.84ZM325.85 343.82L325.85 343.82Q325.85 344.88 325.19 345.54Q324.53 346.20 323.60 346.20L323.60 346.20L319.91 346.20Q318.98 346.20 318.32 345.51Q317.66 344.81 317.66 343.76L317.66 343.76Q317.66 338.87 317.66 336.20Q317.66 333.53 317.63 332.11Q317.60 330.69 317.60 329.70L317.60 329.70Q317.60 323.10 316.18 319.47Q314.76 315.84 311.52 315.84L311.52 315.84Q307.43 315.84 305.52 317.59Q303.60 319.34 303.60 323.23L303.60 323.23L303.60 343.96Q303.60 344.88 302.94 345.54Q302.28 346.20 301.36 346.20L301.36 346.20L297.40 346.20Q296.48 346.20 295.82 345.54Q295.16 344.88 295.16 343.96L295.16 343.96L295.16 314.12Q295.16 313.20 295.82 312.54Q296.48 311.88 297.40 311.88L297.40 311.88L301.36 311.88Q302.81 311.88 303.41 313.13L303.41 313.13Q307.04 311.88 311.52 311.88L311.52 311.88Q316.21 311.88 318.98 313.33Q321.75 314.78 323.21 317.32Q324.66 319.87 325.19 323.10Q325.71 326.33 325.78 329.90L325.78 329.90Q325.85 330.89 325.85 332.31Q325.85 333.73 325.85 336.37Q325.85 339.01 325.85 343.82ZM361.35 298.28L361.35 343.96Q361.35 344.88 360.69 345.54Q360.03 346.20 359.11 346.20L359.11 346.20L355.81 346.20Q354.75 346.20 354.16 345.57Q353.57 344.95 353.57 344.09L353.57 344.09Q351.78 345.41 349.41 346.13Q347.03 346.86 344.06 346.86L344.06 346.86Q339.38 346.86 336.01 344.65Q332.64 342.44 330.90 338.58Q329.15 334.72 329.15 329.70L329.15 329.70Q329.15 324.62 331.13 320.59Q333.11 316.57 336.64 314.22Q340.17 311.88 344.92 311.88L344.92 311.88Q347.56 311.88 349.71 312.67Q351.85 313.46 353.57 314.92L353.57 314.92L353.57 298.28Q353.57 297.36 354.23 296.70Q354.89 296.04 355.81 296.04L355.81 296.04L359.11 296.04Q360.03 296.04 360.69 296.70Q361.35 297.36 361.35 298.28L361.35 298.28ZM344.92 315.84L344.92 315.84Q342.87 315.84 341.06 317.79Q339.24 319.73 338.09 322.90Q336.93 326.07 336.93 329.70L336.93 329.70Q336.93 333.33 337.92 336.33Q338.91 339.34 340.56 341.12Q342.21 342.90 344.06 342.90L344.06 342.90Q348.22 342.90 350.53 339.17Q352.84 335.44 352.84 329.37L352.84 329.37Q352.84 325.87 351.72 322.80Q350.60 319.73 348.78 317.79Q346.97 315.84 344.92 315.84ZM377.39 300.26L377.39 304.16Q377.39 305.08 376.73 305.74Q376.07 306.40 375.15 306.40L375.15 306.40L371.19 306.40Q370.26 306.40 369.60 305.74Q368.94 305.08 368.94 304.16L368.94 304.16L368.94 300.26Q368.94 299.34 369.60 298.68Q370.26 298.02 371.19 298.02L371.19 298.02L375.15 298.02Q376.07 298.02 376.73 298.68Q377.39 299.34 377.39 300.26L377.39 300.26ZM377.39 314.78L377.39 343.96Q377.39 344.88 376.73 345.54Q376.07 346.20 375.15 346.20L375.15 346.20L371.19 346.20Q370.26 346.20 369.60 345.54Q368.94 344.88 368.94 343.96L368.94 343.96L368.94 314.78Q368.94 313.86 369.60 313.20Q370.26 312.54 371.19 312.54L371.19 312.54L375.15 312.54Q376.07 312.54 376.73 313.20Q377.39 313.86 377.39 314.78L377.39 314.78ZM415.34 321.58L415.34 321.58Q415.54 322.04 415.54 322.44L415.54 322.44Q415.54 323.30 414.88 323.86Q414.22 324.42 413.30 324.55L413.30 324.55L409.73 324.88Q408.94 324.95 408.31 324.49Q407.69 324.02 407.49 323.23L407.49 323.23Q406.50 319.93 404.49 317.89Q402.47 315.84 399.63 315.84L399.63 315.84Q397.46 315.84 395.67 317.69Q393.89 319.54 392.84 322.64Q391.78 325.74 391.78 329.44L391.78 329.44Q391.78 335.77 394.02 339.34Q396.27 342.90 400.56 342.90L400.56 342.90Q403.46 342.90 405.24 340.72Q407.03 338.54 407.88 334.52L407.88 334.52Q408.35 332.60 410.19 332.74L410.19 332.74L413.96 333.07Q414.88 333.13 415.51 333.73Q416.13 334.32 416.13 335.18L416.13 335.18Q416.13 335.44 416.00 335.84L416.00 335.84Q414.55 340.79 410.52 343.82Q406.50 346.86 400.56 346.86L400.56 346.86Q392.37 346.86 387.85 342.14Q383.33 337.42 383.33 329.44L383.33 329.44Q383.33 324.42 385.41 320.46Q387.49 316.50 391.15 314.19Q394.82 311.88 399.63 311.88L399.63 311.88Q403.26 311.88 406.40 313.20Q409.53 314.52 411.88 316.70Q414.22 318.88 415.34 321.58ZM429.53 300.26L429.53 304.16Q429.53 305.08 428.87 305.74Q428.21 306.40 427.29 306.40L427.29 306.40L423.33 306.40Q422.40 306.40 421.74 305.74Q421.08 305.08 421.08 304.16L421.08 304.16L421.08 300.26Q421.08 299.34 421.74 298.68Q422.40 298.02 423.33 298.02L423.33 298.02L427.29 298.02Q428.21 298.02 428.87 298.68Q429.53 299.34 429.53 300.26L429.53 300.26ZM429.53 314.78L429.53 343.96Q429.53 344.88 428.87 345.54Q428.21 346.20 427.29 346.20L427.29 346.20L423.33 346.20Q422.40 346.20 421.74 345.54Q421.08 344.88 421.08 343.96L421.08 343.96L421.08 314.78Q421.08 313.86 421.74 313.20Q422.40 312.54 423.33 312.54L423.33 312.54L427.29 312.54Q428.21 312.54 428.87 313.20Q429.53 313.86 429.53 314.78L429.53 314.78ZM451.18 311.88L451.18 311.88Q456.06 311.88 459.76 314.22Q463.46 316.57 465.54 320.59Q467.61 324.62 467.61 329.70L467.61 329.70Q467.61 334.58 465.67 338.48Q463.72 342.37 460.22 344.62Q456.72 346.86 452.04 346.86L452.04 346.86Q447.09 346.86 443.36 344.58Q439.63 342.31 437.55 338.35Q435.47 334.39 435.47 329.37L435.47 329.37Q435.47 324.29 437.42 320.33Q439.37 316.37 442.90 314.12Q446.43 311.88 451.18 311.88ZM451.18 315.84L451.18 315.84Q448.61 315.84 446.76 317.59Q444.91 319.34 443.92 322.41Q442.93 325.48 442.93 329.37L442.93 329.37Q442.93 336.37 445.57 339.63Q448.21 342.90 452.04 342.90L452.04 342.90Q455.01 342.90 456.79 340.99Q458.57 339.07 459.36 336.04Q460.16 333.00 460.16 329.70L460.16 329.70Q460.16 323.63 457.78 319.73Q455.40 315.84 451.18 315.84ZM454.88 296.50L459.43 296.50Q460.49 296.50 460.49 297.49L460.49 297.49Q460.49 298.02 460.22 298.55L460.22 298.55Q460.09 298.81 459.40 299.83Q458.70 300.86 457.81 302.18Q456.92 303.50 456.20 304.59Q455.47 305.68 455.27 306.01L455.27 306.01Q454.88 306.67 454.12 307.56Q453.36 308.45 452.76 308.45L452.76 308.45L448.74 308.45Q447.95 308.45 447.95 307.52L447.95 307.52Q447.95 306.80 448.41 306.01L448.41 306.01Q448.61 305.61 449.20 304.59Q449.79 303.56 450.45 302.28Q451.11 300.99 451.68 299.93Q452.24 298.88 452.43 298.48L452.43 298.48Q452.90 297.69 453.42 297.10Q453.95 296.50 454.88 296.50L454.88 296.50ZM502.59 343.82L502.59 343.82Q502.59 344.88 501.93 345.54Q501.27 346.20 500.35 346.20L500.35 346.20L496.65 346.20Q495.73 346.20 495.07 345.51Q494.41 344.81 494.41 343.76L494.41 343.76Q494.41 338.87 494.41 336.20Q494.41 333.53 494.38 332.11Q494.34 330.69 494.34 329.70L494.34 329.70Q494.34 323.10 492.93 319.47Q491.51 315.84 488.27 315.84L488.27 315.84Q484.18 315.84 482.27 317.59Q480.35 319.34 480.35 323.23L480.35 323.23L480.35 343.96Q480.35 344.88 479.69 345.54Q479.03 346.20 478.11 346.20L478.11 346.20L474.15 346.20Q473.22 346.20 472.56 345.54Q471.90 344.88 471.90 343.96L471.90 343.96L471.90 314.12Q471.90 313.20 472.56 312.54Q473.22 311.88 474.15 311.88L474.15 311.88L478.11 311.88Q479.56 311.88 480.15 313.13L480.15 313.13Q483.78 311.88 488.27 311.88L488.27 311.88Q492.96 311.88 495.73 313.33Q498.50 314.78 499.95 317.32Q501.41 319.87 501.93 323.10Q502.46 326.33 502.53 329.90L502.53 329.90Q502.59 330.89 502.59 332.31Q502.59 333.73 502.59 336.37Q502.59 339.01 502.59 343.82Z" data-element="company-name" data-text-path="" data-text="La Bendición" data-font-family="JP Yusei Magic" fill="#011ffd" fill-opacity="1"></path><path d="M151.30 382.16Q151.03 381.16 150.72 380.66Q150.41 380.16 149.87 379.96Q149.33 379.75 148.35 379.75L148.35 379.75L147.14 379.75Q146.57 379.75 146.40 380.14Q146.22 380.54 146.22 381.80L146.22 381.80L146.22 394.01Q146.22 395.25 146.57 395.74Q146.92 396.22 147.95 396.52L147.95 396.52L148.57 396.68L148.25 397.60L142.33 397.60L141.98 397.17L142.33 396.68Q143.01 395.79 143.28 394.79Q143.55 393.79 143.55 392.17L143.55 392.17L143.55 381.80Q143.55 380.54 143.37 380.14Q143.20 379.75 142.63 379.75L142.63 379.75L141.42 379.75Q140.44 379.75 139.90 379.96Q139.36 380.16 139.05 380.66Q138.74 381.16 138.47 382.16L138.47 382.16L138.31 382.78L137.39 382.45L137.39 377.65L137.82 377.30L138.31 377.65Q139.07 378.21 141.39 378.21L141.39 378.21L148.38 378.21Q150.70 378.21 151.46 377.65L151.46 377.65L151.95 377.30L152.38 377.65L152.38 382.45L151.46 382.78L151.30 382.16ZM164.93 395.22Q164.93 396.06 165.72 396.06L165.72 396.06Q166.34 396.06 167.04 395.57L167.04 395.57L167.55 396.28Q166.93 397.03 166.11 397.51Q165.28 397.98 164.58 397.98L164.58 397.98Q163.50 397.98 163.00 397.36Q162.50 396.74 162.50 395.39L162.50 395.39Q161.88 396.57 160.65 397.28Q159.42 397.98 157.94 397.98L157.94 397.98Q156.00 397.98 154.90 396.80Q153.81 395.63 153.81 393.50L153.81 393.50L153.81 386.75Q153.81 386.15 153.27 386.15L153.27 386.15L152.08 386.15L151.84 385.45Q152.54 384.75 153.55 384.29Q154.56 383.83 155.40 383.83L155.40 383.83Q155.78 383.83 156.02 384.07Q156.27 384.32 156.27 384.69L156.27 384.69L156.27 392.87Q156.27 394.49 156.93 395.33Q157.59 396.17 158.86 396.17L158.86 396.17Q160.67 396.17 161.68 394.60Q162.69 393.04 162.69 390.28L162.69 390.28Q162.69 388.28 162.46 387.16Q162.23 386.04 161.64 385.02L161.64 385.02L161.31 384.59L161.64 384.18L164.93 383.83L164.93 395.22ZM182.02 396.65Q183.13 396.65 183.85 396.05Q184.56 395.44 184.56 394.47L184.56 394.47Q184.56 393.60 183.82 393.06Q183.08 392.52 181.62 391.90L181.62 391.90Q180.30 391.36 179.42 390.85Q178.54 390.34 177.92 389.51Q177.30 388.69 177.30 387.47L177.30 387.47Q177.30 385.85 178.69 384.84Q180.08 383.83 182.21 383.83L182.21 383.83Q184.13 383.83 185.40 384.59Q186.67 385.34 186.67 386.61L186.67 386.61Q186.67 387.64 186.03 388.30Q185.40 388.96 184.40 388.96L184.40 388.96Q183.83 388.96 183.83 388.61L183.83 388.61Q183.83 388.50 184.04 388.06Q184.24 387.61 184.24 387.10L184.24 387.10Q184.24 386.10 183.56 385.61Q182.89 385.13 182.02 385.13L182.02 385.13Q180.92 385.13 180.28 385.68Q179.65 386.23 179.65 387.10L179.65 387.10Q179.65 388.10 180.44 388.70Q181.24 389.31 182.81 389.96L182.81 389.96Q184.10 390.50 184.97 390.97Q185.83 391.44 186.42 392.17Q187.02 392.90 187.02 393.93L187.02 393.93Q187.02 395.76 185.56 396.87Q184.10 397.98 181.67 397.98L181.67 397.98Q179.62 397.98 178.30 397.06Q176.97 396.14 176.97 394.60L176.97 394.60Q176.97 393.68 177.60 393.09Q178.22 392.50 179.22 392.50L179.22 392.50Q179.78 392.50 179.78 392.82L179.78 392.82Q179.78 392.90 179.62 393.32Q179.46 393.74 179.46 394.33L179.46 394.33Q179.46 395.47 180.26 396.06Q181.05 396.65 182.02 396.65L182.02 396.65ZM199.33 395.12Q198.22 396.68 197.06 397.33Q195.90 397.98 194.55 397.98L194.55 397.98Q193.26 397.98 192.15 397.24Q191.04 396.49 190.38 395.01Q189.72 393.52 189.72 391.42L189.72 391.42Q189.72 389.09 190.57 387.38Q191.42 385.67 193.00 384.75Q194.58 383.83 196.71 383.83L196.71 383.83Q197.76 383.83 199.68 384.18L199.68 384.18Q201.30 384.45 202.11 384.50L202.11 384.50L202.41 384.86L202.08 385.34Q201.90 385.61 201.81 385.84Q201.73 386.07 201.73 386.39L201.73 386.39L201.73 395.22Q201.73 396.06 202.54 396.06L202.54 396.06Q203.22 396.06 203.89 395.57L203.89 395.57L204.41 396.28Q203.70 397.06 202.89 397.52Q202.08 397.98 201.41 397.98L201.41 397.98Q200.30 397.98 199.82 397.30Q199.33 396.63 199.33 395.12L199.33 395.12ZM192.55 390.90Q192.55 393.47 193.43 394.68Q194.31 395.90 195.63 395.90L195.63 395.90Q196.71 395.90 197.66 395.29Q198.60 394.68 199.33 393.44L199.33 393.44L199.33 386.15Q198.09 385.31 196.68 385.31L196.68 385.31Q194.71 385.31 193.63 386.79Q192.55 388.26 192.55 390.90L192.55 390.90ZM209.89 395.22Q209.89 396.14 210.70 396.14L210.70 396.14Q211.37 396.14 212.05 395.57L212.05 395.57L212.56 396.28Q211.86 397.06 211.05 397.52Q210.24 397.98 209.54 397.98L209.54 397.98Q208.43 397.98 207.94 397.30Q207.46 396.63 207.46 395.12L207.46 395.12L207.46 379.40Q207.46 379.08 207.34 378.94Q207.21 378.81 206.92 378.81L206.92 378.81L205.73 378.81L205.49 378.11Q206.27 377.40 207.27 376.94Q208.27 376.49 209.05 376.49L209.05 376.49Q209.43 376.49 209.67 376.73Q209.91 376.97 209.91 377.35L209.91 377.35L209.89 395.22ZM226.87 395.22Q226.87 396.06 227.65 396.06L227.65 396.06Q228.27 396.06 228.98 395.57L228.98 395.57L229.49 396.28Q228.87 397.03 228.05 397.51Q227.22 397.98 226.52 397.98L226.52 397.98Q225.44 397.98 224.94 397.36Q224.44 396.74 224.44 395.39L224.44 395.39Q223.82 396.57 222.59 397.28Q221.36 397.98 219.88 397.98L219.88 397.98Q217.93 397.98 216.84 396.80Q215.75 395.63 215.75 393.50L215.75 393.50L215.75 386.75Q215.75 386.15 215.21 386.15L215.21 386.15L214.02 386.15L213.78 385.45Q214.48 384.75 215.49 384.29Q216.50 383.83 217.34 383.83L217.34 383.83Q217.72 383.83 217.96 384.07Q218.20 384.32 218.20 384.69L218.20 384.69L218.20 392.87Q218.20 394.49 218.87 395.33Q219.53 396.17 220.80 396.17L220.80 396.17Q222.60 396.17 223.62 394.60Q224.63 393.04 224.63 390.28L224.63 390.28Q224.63 388.28 224.40 387.16Q224.17 386.04 223.58 385.02L223.58 385.02L223.25 384.59L223.58 384.18L226.87 383.83L226.87 395.22ZM243.26 395.22Q243.26 396.06 244.07 396.06L244.07 396.06Q244.74 396.06 245.42 395.57L245.42 395.57L245.93 396.28Q245.23 397.06 244.42 397.52Q243.61 397.98 242.94 397.98L242.94 397.98Q241.83 397.98 241.34 397.30Q240.86 396.63 240.86 395.12L240.86 395.12Q239.75 396.68 238.59 397.33Q237.43 397.98 236.08 397.98L236.08 397.98Q234.78 397.98 233.67 397.24Q232.57 396.49 231.91 395.01Q231.24 393.52 231.24 391.42L231.24 391.42Q231.24 389.09 232.10 387.38Q232.95 385.67 234.53 384.75Q236.10 383.83 238.24 383.83L238.24 383.83Q239.64 383.83 240.80 384.18L240.80 384.18L240.80 379.40Q240.80 379.08 240.68 378.94Q240.56 378.81 240.26 378.81L240.26 378.81L239.07 378.81L238.83 378.11Q239.61 377.40 240.63 376.94Q241.64 376.49 242.40 376.49L242.40 376.49Q242.77 376.49 243.02 376.73Q243.26 376.97 243.26 377.35L243.26 377.35L243.26 395.22ZM234.08 390.90Q234.08 393.47 234.96 394.68Q235.83 395.90 237.16 395.90L237.16 395.90Q238.24 395.90 239.18 395.29Q240.13 394.68 240.86 393.44L240.86 393.44L240.86 386.15Q239.61 385.31 238.21 385.31L238.21 385.31Q236.24 385.31 235.16 386.79Q234.08 388.26 234.08 390.90L234.08 390.90ZM247.31 394.71Q248.15 394.39 248.82 394.39L248.82 394.39Q249.60 394.39 250.09 394.82Q250.58 395.25 250.58 396.20L250.58 396.20Q250.58 396.95 250.02 397.78Q249.47 398.60 248.36 399.79L248.36 399.79L247.31 400.92L246.53 400.41L247.77 397.98Q248.09 397.33 248.09 396.87L248.09 396.87Q248.09 396.33 247.47 395.87L247.47 395.87L246.99 395.55L246.85 394.90L247.31 394.71ZM264.43 393.28Q264.43 394.55 264.62 395.30Q264.81 396.06 265.29 396.76L265.29 396.76L265.62 397.19L265.29 397.60L260.57 397.60L260.27 396.76L260.84 396.63Q261.51 396.47 261.74 396.05Q261.97 395.63 261.97 394.60L261.97 394.60L261.97 387.02Q261.97 386.69 261.85 386.56Q261.73 386.42 261.43 386.42L261.43 386.42L260.24 386.42L260.00 385.72Q260.78 385.02 261.80 384.56Q262.81 384.10 263.56 384.10L263.56 384.10Q263.94 384.10 264.18 384.34Q264.43 384.59 264.43 384.96L264.43 384.96L264.43 387.85Q265.13 386.10 266.53 384.96Q267.94 383.83 269.48 383.83L269.48 383.83Q271.37 383.83 272.23 384.99Q273.09 386.15 273.09 388.69L273.09 388.69L273.09 395.22Q273.09 396.14 273.90 396.14L273.90 396.14Q274.53 396.14 275.25 395.57L275.25 395.57L275.77 396.28Q275.07 397.06 274.26 397.52Q273.45 397.98 272.74 397.98L272.74 397.98Q271.64 397.98 271.15 397.30Q270.66 396.63 270.66 395.12L270.66 395.12L270.66 388.69Q270.66 385.94 268.34 385.94L268.34 385.94Q267.18 385.94 266.30 386.85Q265.43 387.77 264.93 389.45Q264.43 391.12 264.43 393.28L264.43 393.28ZM290.21 395.22Q290.21 396.06 291.00 396.06L291.00 396.06Q291.62 396.06 292.32 395.57L292.32 395.57L292.83 396.28Q292.21 397.03 291.39 397.51Q290.56 397.98 289.86 397.98L289.86 397.98Q288.78 397.98 288.28 397.36Q287.78 396.74 287.78 395.39L287.78 395.39Q287.16 396.57 285.93 397.28Q284.70 397.98 283.22 397.98L283.22 397.98Q281.28 397.98 280.18 396.80Q279.09 395.63 279.09 393.50L279.09 393.50L279.09 386.75Q279.09 386.15 278.55 386.15L278.55 386.15L277.36 386.15L277.12 385.45Q277.82 384.75 278.83 384.29Q279.84 383.83 280.68 383.83L280.68 383.83Q281.06 383.83 281.30 384.07Q281.55 384.32 281.55 384.69L281.55 384.69L281.55 392.87Q281.55 394.49 282.21 395.33Q282.87 396.17 284.14 396.17L284.14 396.17Q285.95 396.17 286.96 394.60Q287.97 393.04 287.97 390.28L287.97 390.28Q287.97 388.28 287.74 387.16Q287.51 386.04 286.92 385.02L286.92 385.02L286.59 384.59L286.92 384.18L290.21 383.83L290.21 395.22ZM306.14 395.57Q305.14 396.74 303.77 397.36Q302.39 397.98 300.80 397.98L300.80 397.98Q298.93 397.98 297.53 397.11Q296.13 396.25 295.36 394.68Q294.59 393.12 294.59 391.07L294.59 391.07Q294.59 388.91 295.45 387.27Q296.31 385.64 297.89 384.73Q299.47 383.83 301.58 383.83L301.58 383.83Q303.06 383.83 304.10 384.38Q305.14 384.94 305.66 385.84Q306.17 386.75 306.17 387.80L306.17 387.80Q306.17 388.93 305.56 389.99Q304.95 391.04 303.79 391.70Q302.63 392.36 301.01 392.36L301.01 392.36Q300.15 392.36 299.10 392.04Q298.04 391.71 298.04 391.09L298.04 391.09Q298.04 390.88 298.16 390.69Q298.29 390.50 298.45 390.50L298.45 390.50Q298.53 390.50 298.99 390.67Q299.45 390.85 300.18 390.85L300.18 390.85Q301.80 390.85 302.70 389.93Q303.60 389.01 303.60 387.77L303.60 387.77Q303.60 386.72 302.93 385.95Q302.25 385.18 301.04 385.18L301.04 385.18Q299.31 385.18 298.34 386.71Q297.37 388.23 297.37 391.07L297.37 391.07Q297.37 393.47 298.39 394.83Q299.42 396.20 301.36 396.20L301.36 396.20Q303.74 396.20 305.31 394.66L305.31 394.66Q305.41 394.55 305.55 394.55L305.55 394.55Q305.76 394.55 306.01 394.81Q306.25 395.06 306.25 395.33L306.25 395.33Q306.25 395.47 306.14 395.57L306.14 395.57ZM314.16 396.65Q315.27 396.65 315.98 396.05Q316.70 395.44 316.70 394.47L316.70 394.47Q316.70 393.60 315.96 393.06Q315.21 392.52 313.76 391.90L313.76 391.90Q312.43 391.36 311.56 390.85Q310.68 390.34 310.06 389.51Q309.44 388.69 309.44 387.47L309.44 387.47Q309.44 385.85 310.83 384.84Q312.22 383.83 314.35 383.83L314.35 383.83Q316.27 383.83 317.54 384.59Q318.81 385.34 318.81 386.61L318.81 386.61Q318.81 387.64 318.17 388.30Q317.54 388.96 316.54 388.96L316.54 388.96Q315.97 388.96 315.97 388.61L315.97 388.61Q315.97 388.50 316.17 388.06Q316.38 387.61 316.38 387.10L316.38 387.10Q316.38 386.10 315.70 385.61Q315.03 385.13 314.16 385.13L314.16 385.13Q313.05 385.13 312.42 385.68Q311.79 386.23 311.79 387.10L311.79 387.10Q311.79 388.10 312.58 388.70Q313.38 389.31 314.94 389.96L314.94 389.96Q316.24 390.50 317.10 390.97Q317.97 391.44 318.56 392.17Q319.16 392.90 319.16 393.93L319.16 393.93Q319.16 395.76 317.70 396.87Q316.24 397.98 313.81 397.98L313.81 397.98Q311.76 397.98 310.44 397.06Q309.11 396.14 309.11 394.60L309.11 394.60Q309.11 393.68 309.73 393.09Q310.35 392.50 311.35 392.50L311.35 392.50Q311.92 392.50 311.92 392.82L311.92 392.82Q311.92 392.90 311.76 393.32Q311.60 393.74 311.60 394.33L311.60 394.33Q311.60 395.47 312.39 396.06Q313.19 396.65 314.16 396.65L314.16 396.65ZM325.77 384.18L329.28 384.18Q329.28 384.75 329.12 385.21Q328.96 385.67 328.66 385.88L328.66 385.88L325.77 385.88L325.77 394.58Q325.77 395.41 326.01 395.76Q326.26 396.11 326.80 396.11L326.80 396.11Q327.61 396.11 328.63 395.25L328.63 395.25L329.15 395.95Q328.44 396.87 327.47 397.42Q326.50 397.98 325.64 397.98L325.64 397.98Q324.53 397.98 323.92 397.29Q323.31 396.60 323.31 395.39L323.31 395.39L323.31 385.88L320.94 385.88Q320.94 385.15 321.05 384.94Q321.15 384.72 321.59 384.61L321.59 384.61Q323.02 384.23 323.63 383.38Q324.23 382.53 324.50 381.18L324.50 381.18Q324.58 380.75 324.79 380.64Q324.99 380.54 325.77 380.54L325.77 380.54L325.77 384.18ZM335.36 387.85L335.52 387.85Q335.98 386.04 336.94 384.94Q337.89 383.83 339.03 383.83L339.03 383.83Q340.16 383.83 340.91 384.57Q341.65 385.31 341.65 386.58L341.65 386.58Q341.65 387.61 340.89 388.31Q340.14 389.01 339.00 389.01L339.00 389.01Q338.49 389.01 338.49 388.72L338.49 388.72Q338.49 388.64 338.72 388.31Q338.95 387.99 339.10 387.64Q339.24 387.29 339.24 386.85L339.24 386.85Q339.24 386.37 338.99 386.08Q338.73 385.80 338.35 385.80L338.35 385.80Q337.71 385.80 337.02 386.57Q336.33 387.34 335.84 389.05Q335.36 390.77 335.36 393.39L335.36 393.39Q335.36 394.60 335.55 395.35Q335.73 396.09 336.22 396.76L336.22 396.76L336.54 397.19L336.22 397.60L331.50 397.60L331.20 396.76L331.77 396.63Q332.44 396.47 332.67 396.05Q332.90 395.63 332.90 394.60L332.90 394.60L332.90 387.02Q332.90 386.69 332.78 386.56Q332.66 386.42 332.36 386.42L332.36 386.42L331.17 386.42L330.93 385.72Q331.71 385.02 332.72 384.56Q333.74 384.10 334.49 384.10L334.49 384.10Q334.87 384.10 335.11 384.34Q335.36 384.59 335.36 384.96L335.36 384.96L335.36 387.85ZM352.47 395.12Q351.37 396.68 350.21 397.33Q349.05 397.98 347.70 397.98L347.70 397.98Q346.40 397.98 345.29 397.24Q344.19 396.49 343.52 395.01Q342.86 393.52 342.86 391.42L342.86 391.42Q342.86 389.09 343.71 387.38Q344.56 385.67 346.14 384.75Q347.72 383.83 349.86 383.83L349.86 383.83Q350.91 383.83 352.83 384.18L352.83 384.18Q354.45 384.45 355.26 384.50L355.26 384.50L355.55 384.86L355.23 385.34Q355.04 385.61 354.96 385.84Q354.88 386.07 354.88 386.39L354.88 386.39L354.88 395.22Q354.88 396.06 355.69 396.06L355.69 396.06Q356.36 396.06 357.04 395.57L357.04 395.57L357.55 396.28Q356.85 397.06 356.04 397.52Q355.23 397.98 354.55 397.98L354.55 397.98Q353.45 397.98 352.96 397.30Q352.47 396.63 352.47 395.12L352.47 395.12ZM345.70 390.90Q345.70 393.47 346.58 394.68Q347.45 395.90 348.78 395.90L348.78 395.90Q349.86 395.90 350.80 395.29Q351.75 394.68 352.47 393.44L352.47 393.44L352.47 386.15Q351.23 385.31 349.83 385.31L349.83 385.31Q347.86 385.31 346.78 386.79Q345.70 388.26 345.70 390.90L345.70 390.90ZM373.51 385.34Q372.78 385.34 372.32 385.52Q371.86 385.69 371.78 385.69L371.78 385.69Q371.62 385.69 371.50 385.50Q371.37 385.31 371.37 385.10L371.37 385.10Q371.37 384.77 371.62 384.61L371.62 384.61Q372.86 383.83 374.34 383.83L374.34 383.83Q376.02 383.83 377.33 384.67Q378.64 385.50 379.37 386.99Q380.10 388.47 380.10 390.36L380.10 390.36Q380.10 392.52 379.18 394.27Q378.26 396.01 376.67 396.99Q375.07 397.98 373.08 397.98L373.08 397.98Q371.51 397.98 370.16 397.52Q368.81 397.06 368.03 396.28L368.03 396.28L368.03 379.40Q368.03 379.08 367.91 378.94Q367.78 378.81 367.49 378.81L367.49 378.81L366.30 378.81L366.06 378.11Q366.84 377.40 367.84 376.94Q368.84 376.49 369.62 376.49L369.62 376.49Q370.00 376.49 370.24 376.73Q370.48 376.97 370.48 377.35L370.48 377.35L370.48 395.60Q371.13 396.06 371.79 396.26Q372.45 396.47 373.32 396.47L373.32 396.47Q375.13 396.47 376.18 394.97Q377.23 393.47 377.23 390.90L377.23 390.90Q377.23 389.28 376.76 388.01Q376.29 386.75 375.45 386.04Q374.61 385.34 373.51 385.34L373.51 385.34ZM394.08 395.57Q393.08 396.74 391.71 397.36Q390.33 397.98 388.74 397.98L388.74 397.98Q386.87 397.98 385.47 397.11Q384.06 396.25 383.30 394.68Q382.53 393.12 382.53 391.07L382.53 391.07Q382.53 388.91 383.39 387.27Q384.25 385.64 385.83 384.73Q387.41 383.83 389.52 383.83L389.52 383.83Q391.00 383.83 392.04 384.38Q393.08 384.94 393.60 385.84Q394.11 386.75 394.11 387.80L394.11 387.80Q394.11 388.93 393.50 389.99Q392.89 391.04 391.73 391.70Q390.57 392.36 388.95 392.36L388.95 392.36Q388.09 392.36 387.03 392.04Q385.98 391.71 385.98 391.09L385.98 391.09Q385.98 390.88 386.10 390.69Q386.22 390.50 386.39 390.50L386.39 390.50Q386.47 390.50 386.93 390.67Q387.39 390.85 388.11 390.85L388.11 390.85Q389.73 390.85 390.64 389.93Q391.54 389.01 391.54 387.77L391.54 387.77Q391.54 386.72 390.87 385.95Q390.19 385.18 388.98 385.18L388.98 385.18Q387.25 385.18 386.28 386.71Q385.31 388.23 385.31 391.07L385.31 391.07Q385.31 393.47 386.33 394.83Q387.36 396.20 389.30 396.20L389.30 396.20Q391.68 396.20 393.24 394.66L393.24 394.66Q393.35 394.55 393.49 394.55L393.49 394.55Q393.70 394.55 393.95 394.81Q394.19 395.06 394.19 395.33L394.19 395.33Q394.19 395.47 394.08 395.57L394.08 395.57ZM401.10 393.28Q401.10 394.55 401.29 395.30Q401.48 396.06 401.97 396.76L401.97 396.76L402.29 397.19L401.97 397.60L397.24 397.60L396.94 396.76L397.51 396.63Q398.19 396.47 398.42 396.05Q398.64 395.63 398.64 394.60L398.64 394.60L398.64 387.02Q398.64 386.69 398.52 386.56Q398.40 386.42 398.10 386.42L398.10 386.42L396.92 386.42L396.67 385.72Q397.46 385.02 398.47 384.56Q399.48 384.10 400.24 384.10L400.24 384.10Q400.62 384.10 400.86 384.34Q401.10 384.59 401.10 384.96L401.10 384.96L401.10 387.85Q401.80 386.10 403.21 384.96Q404.61 383.83 406.15 383.83L406.15 383.83Q408.04 383.83 408.90 384.99Q409.77 386.15 409.77 388.69L409.77 388.69L409.77 395.22Q409.77 396.14 410.58 396.14L410.58 396.14Q411.20 396.14 411.93 395.57L411.93 395.57L412.44 396.28Q411.74 397.06 410.93 397.52Q410.12 397.98 409.42 397.98L409.42 397.98Q408.31 397.98 407.82 397.30Q407.34 396.63 407.34 395.12L407.34 395.12L407.34 388.69Q407.34 385.94 405.02 385.94L405.02 385.94Q403.86 385.94 402.98 386.85Q402.10 387.77 401.60 389.45Q401.10 391.12 401.10 393.28L401.10 393.28ZM426.21 395.22Q426.21 396.06 427.02 396.06L427.02 396.06Q427.70 396.06 428.37 395.57L428.37 395.57L428.88 396.28Q428.18 397.06 427.37 397.52Q426.56 397.98 425.89 397.98L425.89 397.98Q424.78 397.98 424.29 397.30Q423.81 396.63 423.81 395.12L423.81 395.12Q422.70 396.68 421.54 397.33Q420.38 397.98 419.03 397.98L419.03 397.98Q417.73 397.98 416.63 397.24Q415.52 396.49 414.86 395.01Q414.20 393.52 414.20 391.42L414.20 391.42Q414.20 389.09 415.05 387.38Q415.90 385.67 417.48 384.75Q419.06 383.83 421.19 383.83L421.19 383.83Q422.59 383.83 423.75 384.18L423.75 384.18L423.75 379.40Q423.75 379.08 423.63 378.94Q423.51 378.81 423.21 378.81L423.21 378.81L422.03 378.81L421.78 378.11Q422.57 377.40 423.58 376.94Q424.59 376.49 425.35 376.49L425.35 376.49Q425.73 376.49 425.97 376.73Q426.21 376.97 426.21 377.35L426.21 377.35L426.21 395.22ZM417.03 390.90Q417.03 393.47 417.91 394.68Q418.79 395.90 420.11 395.90L420.11 395.90Q421.19 395.90 422.13 395.29Q423.08 394.68 423.81 393.44L423.81 393.44L423.81 386.15Q422.57 385.31 421.16 385.31L421.16 385.31Q419.19 385.31 418.11 386.79Q417.03 388.26 417.03 390.90L417.03 390.90ZM431.77 379.83Q431.77 379.32 432.35 378.69Q432.93 378.05 433.42 378.05L433.42 378.05Q433.93 378.05 434.53 378.67Q435.12 379.29 435.12 379.83L435.12 379.83Q435.12 380.35 434.53 380.97Q433.93 381.59 433.42 381.59L433.42 381.59Q432.96 381.59 432.37 380.97Q431.77 380.35 431.77 379.83L431.77 379.83ZM434.64 395.22Q434.64 396.14 435.45 396.14L435.45 396.14Q436.12 396.14 436.80 395.57L436.80 395.57L437.31 396.28Q436.61 397.06 435.80 397.52Q434.99 397.98 434.28 397.98L434.28 397.98Q433.18 397.98 432.69 397.30Q432.21 396.63 432.21 395.12L432.21 395.12L432.21 386.75Q432.21 386.42 432.08 386.29Q431.96 386.15 431.67 386.15L431.67 386.15L430.48 386.15L430.23 385.45Q431.02 384.75 432.02 384.29Q433.02 383.83 433.80 383.83L433.80 383.83Q434.18 383.83 434.42 384.07Q434.66 384.32 434.66 384.69L434.66 384.69L434.64 395.22ZM449.46 394.82Q449.54 394.74 449.70 394.74L449.70 394.74Q449.92 394.74 450.15 394.98Q450.38 395.22 450.38 395.49L450.38 395.49Q450.38 395.66 450.30 395.74L450.30 395.74Q449.35 396.82 448.10 397.40Q446.84 397.98 445.44 397.98L445.44 397.98Q443.57 397.98 442.09 397.07Q440.60 396.17 439.77 394.56Q438.93 392.96 438.93 390.93L438.93 390.93Q438.93 388.80 439.74 387.19Q440.55 385.58 442.02 384.71Q443.49 383.83 445.46 383.83L445.46 383.83Q447.54 383.83 448.88 384.84Q450.21 385.85 450.21 387.45L450.21 387.45Q450.21 388.61 449.47 389.35Q448.73 390.09 447.57 390.09L447.57 390.09Q447.06 390.09 447.06 389.80L447.06 389.80Q447.06 389.72 447.24 389.42Q447.43 389.12 447.57 388.69Q447.70 388.26 447.70 387.58L447.70 387.58Q447.70 386.50 447.02 385.87Q446.33 385.23 445.17 385.23L445.17 385.23Q443.63 385.23 442.68 386.75Q441.74 388.26 441.74 390.71L441.74 390.71Q441.74 393.23 442.86 394.70Q443.98 396.17 445.89 396.17L445.89 396.17Q447.84 396.17 449.46 394.82L449.46 394.82ZM453.94 379.83Q453.94 379.32 454.52 378.69Q455.10 378.05 455.59 378.05L455.59 378.05Q456.10 378.05 456.69 378.67Q457.29 379.29 457.29 379.83L457.29 379.83Q457.29 380.35 456.69 380.97Q456.10 381.59 455.59 381.59L455.59 381.59Q455.13 381.59 454.53 380.97Q453.94 380.35 453.94 379.83L453.94 379.83ZM456.80 395.22Q456.80 396.14 457.61 396.14L457.61 396.14Q458.29 396.14 458.96 395.57L458.96 395.57L459.48 396.28Q458.77 397.06 457.96 397.52Q457.15 397.98 456.45 397.98L456.45 397.98Q455.34 397.98 454.86 397.30Q454.37 396.63 454.37 395.12L454.37 395.12L454.37 386.75Q454.37 386.42 454.25 386.29Q454.13 386.15 453.83 386.15L453.83 386.15L452.64 386.15L452.40 385.45Q453.18 384.75 454.18 384.29Q455.18 383.83 455.97 383.83L455.97 383.83Q456.34 383.83 456.59 384.07Q456.83 384.32 456.83 384.69L456.83 384.69L456.80 395.22ZM461.10 390.90Q461.10 388.74 461.89 387.15Q462.69 385.56 464.19 384.69Q465.69 383.83 467.68 383.83L467.68 383.83Q469.68 383.83 471.17 384.69Q472.65 385.56 473.46 387.15Q474.27 388.74 474.27 390.90L474.27 390.90Q474.27 393.04 473.46 394.64Q472.65 396.25 471.17 397.11Q469.68 397.98 467.68 397.98L467.68 397.98Q465.69 397.98 464.19 397.11Q462.69 396.25 461.89 394.64Q461.10 393.04 461.10 390.90L461.10 390.90ZM471.44 390.98Q471.44 389.72 471.09 388.39Q470.73 387.07 469.91 386.15Q469.09 385.23 467.76 385.23L467.76 385.23Q466.63 385.23 465.75 385.95Q464.88 386.66 464.39 387.96Q463.90 389.26 463.90 390.93L463.90 390.93Q463.90 393.50 464.90 395.01Q465.90 396.52 467.60 396.52L467.60 396.52Q468.71 396.52 469.59 395.83Q470.46 395.14 470.95 393.89Q471.44 392.63 471.44 390.98L471.44 390.98ZM469.79 377.08Q470.30 377.32 470.61 377.77Q470.92 378.21 470.92 378.78L470.92 378.78Q470.92 379.37 470.57 379.85Q470.22 380.32 469.41 380.72L469.41 380.72L466.36 382.24L465.58 381.29L469.79 377.08ZM480.99 393.28Q480.99 394.55 481.18 395.30Q481.37 396.06 481.86 396.76L481.86 396.76L482.18 397.19L481.86 397.60L477.13 397.60L476.84 396.76L477.40 396.63Q478.08 396.47 478.31 396.05Q478.54 395.63 478.54 394.60L478.54 394.60L478.54 387.02Q478.54 386.69 478.42 386.56Q478.29 386.42 478.00 386.42L478.00 386.42L476.81 386.42L476.57 385.72Q477.35 385.02 478.36 384.56Q479.37 384.10 480.13 384.10L480.13 384.10Q480.51 384.10 480.75 384.34Q480.99 384.59 480.99 384.96L480.99 384.96L480.99 387.85Q481.70 386.10 483.10 384.96Q484.50 383.83 486.04 383.83L486.04 383.83Q487.93 383.83 488.80 384.99Q489.66 386.15 489.66 388.69L489.66 388.69L489.66 395.22Q489.66 396.14 490.47 396.14L490.47 396.14Q491.09 396.14 491.82 395.57L491.82 395.57L492.33 396.28Q491.63 397.06 490.82 397.52Q490.01 397.98 489.31 397.98L489.31 397.98Q488.20 397.98 487.72 397.30Q487.23 396.63 487.23 395.12L487.23 395.12L487.23 388.69Q487.23 385.94 484.91 385.94L484.91 385.94Q483.75 385.94 482.87 386.85Q481.99 387.77 481.49 389.45Q480.99 391.12 480.99 393.28L480.99 393.28Z" data-element="slogan" data-text-path="" data-text="Tu salud, nuestra bendición" data-font-family="Gabriela" fill="#ff2281" fill-opacity="1"></path></g></g></svg>